:SAMPLES-PER-SECOND 30
:FULLY-SPECIFIED
:DEGREES
296
root  20.9488 34.4482 -41.0296 4.90637 -74.6874 -12.7919
RightUpLeg  0.59746 -1.29605 -17.4043
RightLeg  44.1344 -4.58018 -5.07776
RightFoot  -24.0041 3.32812 31.0308
RightToes  1.16414e-010 0 -3.6325e-017
Spine  29.213 1.06288 -5.30932
Spine1  -3.95299 -1.10024 4.91453
HEad  -16.8071 -11.4939 -3.08258
LeftShoulder1  2.15493 -5.40768 -17.5679
LeftArm  -0.0812782 33.1008 -50.7431
LeftForeArm  6.5058 -8.2219 -13.8656
LeftHand  0.204021 2.13607 -7.86831
RightShoulder  0.225914 -2.29994 11.9962
RightArm  -53.2757 -8.48187 16.5259
RightForeArm  -132.223 35.0015 8.56571
RightHand  67.9767 -60.5874 -100.768
LeftUpLeg  -27.4069 2.86374 24.2019
LeftLeg  50.6869 8.73987 11.7231
LeftFoot  -18.3964 -0.509838 -10.0228
LeftToes  7.09373e-011 9.9627e-011 8.96859e-012
297
root  21.2369 34.6941 -42.5943 9.79459 -76.0573 -16.8643
RightUpLeg  -1.13653 -1.48517 -13.6361
RightLeg  43.1556 -4.6137 -4.91331
RightFoot  -27.373 3.50208 25.6967
RightToes  1.16414e-010 0 -3.6325e-017
Spine  28.3818 0.355956 -3.79391
Spine1  -3.8454 -1.14156 4.04999
HEad  -17.1679 -7.98856 -3.00839
LeftShoulder1  1.99863 -4.37249 -18.8399
LeftArm  -6.11856 29.3507 -51.6209
LeftForeArm  5.94596 -7.16998 -13.5506
LeftHand  -0.00259204 2.28032 -0.372406
RightShoulder  0.332839 -1.87158 13.688
RightArm  -44.5365 -11.3929 21.3333
RightForeArm  -112.706 42.3867 11.7582
RightHand  82.9982 -84.961 -91.1743
LeftUpLeg  -27.4209 -0.521021 26.3946
LeftLeg  47.3743 7.90026 9.52796
LeftFoot  -17.413 -0.441221 -10.312
LeftToes  7.09373e-011 9.9627e-011 8.96859e-012
298
root  21.524 34.9962 -43.8693 13.7696 -78.4018 -20.4018
RightUpLeg  -3.68631 -1.4621 -11.6465
RightLeg  43.7476 -3.17323 -3.55194
RightFoot  -27.7196 3.30073 23.9325
RightToes  1.16414e-010 0 -3.6325e-017
Spine  28.0674 0.158226 -2.18381
Spine1  -3.48212 -0.606225 1.80423
HEad  -18.2964 -5.06833 -3.30699
LeftShoulder1  1.85254 -3.63756 -19.4398
LeftArm  -4.90357 26.206 -53.3192
LeftForeArm  1.48399 -10.2382 -12.2655
LeftHand  -0.161714 2.34221 5.88841
RightShoulder  0.456907 -1.33052 14.3176
RightArm  -37.5498 -14.9343 28.0084
RightForeArm  -79.5443 47.9699 14.9885
RightHand  -105.893 -67.2375 131.836
LeftUpLeg  -26.9536 -0.713809 26.4352
LeftLeg  46.6174 4.70853 5.70016
LeftFoot  -16.3881 -0.498085 -13.4737
LeftToes  7.09373e-011 9.9627e-011 8.96859e-012
299
root  21.6598 35.5453 -44.8676 16.219 -80.6727 -22.2003
RightUpLeg  -4.93155 -2.66225 -11.1226
RightLeg  42.3637 -1.7128 -1.98837
RightFoot  -26.688 3.13481 24.2897
RightToes  1.16414e-010 0 -3.6325e-017
Spine  27.38 0.254751 -1.45256
Spine1  -3.14427 0.0141596 -0.374356
HEad  -18.9896 -2.32267 -4.0464
LeftShoulder1  1.85113 -3.66213 -19.3334
LeftArm  5.7469 25.0846 -55.0595
LeftForeArm  -7.67084 -17.5322 -8.92982
LeftHand  -0.272652 1.95079 9.06904
RightShoulder  0.56425 -0.854285 14.5725
RightArm  -28.9765 -17.6565 34.8335
RightForeArm  -44.0282 48.3793 14.9923
RightHand  -37.037 -36.9151 76.9779
LeftUpLeg  -26.7392 3.36227 23.6241
LeftLeg  49.1473 1.78168 2.65158
LeftFoot  -15.5646 -0.52073 -16.5298
LeftToes  7.09373e-011 9.9627e-011 8.96859e-012
300
root  21.5767 36.417 -45.6393 19.0078 -81.9583 -23.5892
RightUpLeg  -4.51663 -4.50065 -10.2929
RightLeg  37.2541 -0.892266 -1.00049
RightFoot  -24.1236 2.45794 23.0653
RightToes  1.16414e-010 0 -3.6325e-017
Spine  25.5635 0.328901 -1.46889
Spine1  -3.36912 0.194947 -0.656314
HEad  -18.4213 0.435876 -4.99712
LeftShoulder1  1.87245 -3.90509 -18.7283
LeftArm  15.5924 25.9411 -55.8632
LeftForeArm  -9.56455 -25.1361 -5.43694
LeftHand  -0.35303 1.58648 10.673
RightShoulder  0.625523 -0.613967 14.9454
RightArm  -17.884 -19.0601 41.1168
RightForeArm  -17.8647 43.3121 11.7172
RightHand  4.26796 -0.0247095 -8.92843
LeftUpLeg  -27.1013 9.72075 19.2678
LeftLeg  53.2604 1.09153 2.08631
LeftFoot  -14.0743 -0.33017 -17.2078
LeftToes  7.09373e-011 9.9627e-011 8.96859e-012
301
root  21.2927 37.4364 -46.2672 21.1772 -81.9784 -24.0704
RightUpLeg  -3.11996 -4.95276 -8.38449
RightLeg  30.3387 -2.20566 -1.57577
RightFoot  -19.1501 1.34003 21.3843
RightToes  1.16414e-010 0 -3.6325e-017
Spine  22.9564 0.169181 -2.21927
Spine1  -3.60412 -0.283688 0.966257
HEad  -17.0438 2.92764 -5.92865
LeftShoulder1  1.79073 -3.83287 -17.7912
LeftArm  16.1414 27.5551 -55.673
LeftForeArm  3.46511 -30.6222 -6.49745
LeftHand  -0.332969 2.32396 12.57
RightShoulder  0.677841 -0.445991 15.5127
RightArm  -4.70301 -19.6041 47.2285
RightForeArm  -18.2439 34.8721 8.73165
RightHand  -0.871516 1.46621 -15.7544
LeftUpLeg  -27.3785 14.6785 14.6764
LeftLeg  56.8046 1.65648 3.26149
LeftFoot  -11.0542 0.104657 -16.3086
LeftToes  7.09373e-011 9.9627e-011 8.96859e-012
302
root  20.9167 38.3981 -46.8137 19.1116 -81.1553 -20.9491
RightUpLeg  -1.80514 -3.45133 -6.29703
RightLeg  25.7103 -7.25313 -4.0329
RightFoot  -12.4277 0.113867 21.0748
RightToes  1.16414e-010 0 -3.6325e-017
Spine  20.4321 -0.245356 -3.42988
Spine1  -3.06109 -1.16402 2.82006
HEad  -15.4223 4.90721 -6.83847
LeftShoulder1  1.71974 -3.818 -16.8032
LeftArm  18.4541 29.1343 -55.2168
LeftForeArm  12.9461 -34.7062 -7.02198
LeftHand  -0.12762 4.41729 13.4012
RightShoulder  0.765854 -0.178883 16.4534
RightArm  7.90389 -20.4453 52.9713
RightForeArm  -23.5055 25.7935 7.1357
RightHand  -0.172817 -2.73311 -6.3734
LeftUpLeg  -26.1169 16.2838 10.1444
LeftLeg  58.3653 2.32081 4.61656
LeftFoot  -6.71879 0.616521 -14.357
LeftToes  7.09373e-011 9.9627e-011 8.96859e-012
303
root  20.5591 39.1249 -47.2281 15.9222 -80.3398 -17.3045
RightUpLeg  -2.37942 -2.38213 -4.90185
RightLeg  26.5599 -12.6608 -7.06106
RightFoot  -6.53359 -0.902412 20.3552
RightToes  1.16414e-010 0 -3.6325e-017
Spine  18.2871 -0.723244 -4.11165
Spine1  -2.31163 -1.94938 3.89379
HEad  -13.362 6.66798 -7.99009
LeftShoulder1  1.79711 -4.30334 -16.2844
LeftArm  22.091 30.3383 -53.8452
LeftForeArm  16.1385 -37.1893 -7.52087
LeftHand  0.0131597 5.76262 10.5892
RightShoulder  0.919597 0.222244 18.2232
RightArm  9.61089 -22.4945 56.4351
RightForeArm  -23.9872 17.2794 9.7262
RightHand  -0.00571726 -5.50503 0.0587876
LeftUpLeg  -22.7786 15.4617 5.8245
LeftLeg  57.6628 3.26091 6.08582
LeftFoot  -2.06034 0.963389 -11.7029
LeftToes  7.09373e-011 9.9627e-011 8.96859e-012
304
root  20.2423 39.4572 -47.5224 15.724 -80.5773 -16.5407
RightUpLeg  -6.03559 -2.02702 -3.99412
RightLeg  32.0495 -13.4008 -9.07738
RightFoot  -3.46188 -1.29792 18.3125
RightToes  1.16414e-010 0 -3.6325e-017
Spine  16.2265 -0.93978 -4.66561
Spine1  -2.30124 -2.50182 5.28486
HEad  -10.9918 9.02018 -9.89019
LeftShoulder1  1.90615 -4.68395 -16.5806
LeftArm  27.7233 31.2508 -51.5426
LeftForeArm  14.9028 -37.9295 -7.81296
LeftHand  -0.0243419 5.30287 4.17769
RightShoulder  1.17612 0.820709 20.9128
RightArm  -3.89441 -26.0613 56.0092
RightForeArm  -21.3127 10.5216 13.9274
RightHand  -0.0215773 -8.61863 -0.975865
LeftUpLeg  -18.2763 13.5555 1.93132
LeftLeg  55.2018 5.09768 8.34433
LeftFoot  2.31709 1.23102 -10.304
LeftToes  7.09373e-011 9.9627e-011 8.96859e-012
305
root  19.8845 39.3533 -47.795 18.4721 -81.9617 -18.6187
RightUpLeg  -11.0758 -0.316623 -3.17074
RightLeg  38.0776 -9.6034 -8.19033
RightFoot  -2.84815 -1.29371 17.0343
RightToes  1.16414e-010 0 -3.6325e-017
Spine  13.9996 -0.977314 -6.59482
Spine1  -2.30585 -3.33176 8.7949
HEad  -9.52065 12.5857 -12.8445
LeftShoulder1  1.7778 -3.95762 -17.1818
LeftArm  33.4283 31.8969 -49.365
LeftForeArm  12.2403 -36.321 -7.51841
LeftHand  -0.0153709 4.67975 -2.67227
RightShoulder  1.46014 1.47109 23.26
RightArm  -5.47941 -31.5893 53.8531
RightForeArm  -39.6765 14.4235 11.6586
RightHand  0.0297882 -14.0773 -1.08395
LeftUpLeg  -13.4228 9.96216 -1.69737
LeftLeg  51.7853 8.57144 11.9288
LeftFoot  4.10032 1.49007 -11.1761
LeftToes  7.09373e-011 9.9627e-011 8.96859e-012
306
root  19.4362 38.8711 -48.1225 23.7525 -82.8685 -23.4469
RightUpLeg  -14.4929 1.43491 -2.27264
RightLeg  41.6531 -4.49582 -4.58321
RightFoot  -4.49095 -1.05643 17.0423
RightToes  1.16414e-010 0 -3.6325e-017
Spine  11.4639 -1.35356 -9.65164
Spine1  -0.977196 -5.00327 14.1859
HEad  -9.86995 16.7457 -16.3097
LeftShoulder1  1.31928 -2.18222 -16.3986
LeftArm  36.9162 32.2661 -48.4972
LeftForeArm  7.93542 -31.9291 -6.55982
LeftHand  -0.0616667 5.83268 -6.47988
RightShoulder  1.47726 1.53752 23.17
RightArm  -2.51177 -38.5824 52.819
RightForeArm  -59.6034 28.8948 7.81412
RightHand  0.284573 -15.8986 -4.46516
LeftUpLeg  -8.57054 3.60808 -5.05865
LeftLeg  48.6752 14.7021 17.5674
LeftFoot  -0.538238 1.2077 -12.7503
LeftToes  7.09373e-011 9.9627e-011 8.96859e-012
307
root  19.0149 38.1896 -48.5024 33.0671 -81.2121 -32.092
RightUpLeg  -14.8687 0.221309 0.0193989
RightLeg  41.5157 -1.23373 -1.48352
RightFoot  -8.91872 -0.414723 16.209
RightToes  1.16414e-010 0 -3.6325e-017
Spine  8.97837 -2.33145 -11.2638
Spine1  0.828004 -7.27234 19.9589
HEad  -11.1629 20.0195 -18.8454
LeftShoulder1  0.802589 -0.488457 -13.0345
LeftArm  38.7915 32.6 -48.2127
LeftForeArm  2.45975 -25.8932 -5.56329
LeftHand  -0.232381 8.43406 -6.85219
RightShoulder  1.043 0.385383 20.4308
RightArm  -15.6562 -44.9854 53.7698
RightForeArm  -46.2724 46.8029 14.5
RightHand  0.0748064 -7.16978 -11.1632
LeftUpLeg  -4.66927 -3.68894 -6.11754
LeftLeg  46.6048 22.1912 23.5573
LeftFoot  -10.5592 0.164382 -13.1886
LeftToes  7.09373e-011 9.9627e-011 8.96859e-012
308
root  18.7435 37.6695 -48.919 39.5105 -77.434 -37.3608
RightUpLeg  -12.7558 -3.64457 3.7565
RightLeg  37.1687 -0.635851 -0.756513
RightFoot  -14.7277 0.317178 14.1216
RightToes  1.16414e-010 0 -3.6325e-017
Spine  7.66771 -3.17543 -11.5263
Spine1  0.718042 -8.95798 25.5307
HEad  -12.2646 21.6894 -19.5799
LeftShoulder1  0.539212 0.0715635 -8.32309
LeftArm  38.5549 32.8719 -45.6983
LeftForeArm  3.59553 -20.1508 -6.70313
LeftHand  -0.311399 10.4382 -5.56906
RightShoulder  0.424111 -1.70483 17.201
RightArm  -25.3888 -47.1864 55.6792
RightForeArm  -28.4821 65.7006 29.9626
RightHand  0.316203 -5.7566 -19.1752
LeftUpLeg  -3.30495 -7.07721 -3.03238
LeftLeg  44.6778 24.6296 24.2142
LeftFoot  -18.5981 -0.705009 -12.7662
LeftToes  7.09373e-011 9.9627e-011 8.96859e-012
309
root  18.6341 37.5911 -49.3568 42.5927 -74.03 -38.8247
RightUpLeg  -10.4476 -6.132 7.52675
RightLeg  30.3428 -2.27638 -1.65211
RightFoot  -18.1523 0.621792 12.3695
RightToes  1.16414e-010 0 -3.6325e-017
Spine  7.75334 -3.12696 -12.6363
Spine1  -1.70909 -9.21912 30.9224
HEad  -12.8569 22.6472 -18.4192
LeftShoulder1  0.517046 -0.707365 -4.3818
LeftArm  35.7663 32.737 -39.8094
LeftForeArm  15.0717 -15.9085 -10.4884
LeftHand  -0.358059 11.3961 -5.51173
RightShoulder  -0.0237132 -3.58403 14.5961
RightArm  -33.8134 -43.0376 53.8635
RightForeArm  -2.21673 77.1647 76.0719
RightHand  6.97766 -27.5503 -33.6684
LeftUpLeg  -6.30424 -4.54527 2.60477
LeftLeg  45.2703 17.6933 18.3909
LeftFoot  -20.0951 -0.887012 -13.1506
LeftToes  7.09373e-011 9.9627e-011 8.96859e-012
310
root  18.66 38.0511 -49.5804 41.8108 -72.9061 -37.2868
RightUpLeg  -8.43755 -5.17986 8.84043
RightLeg  24.2301 -4.95873 -2.67322
RightFoot  -16.4662 0.427653 12.0187
RightToes  1.16414e-010 0 -3.6325e-017
Spine  9.15492 -2.11114 -14.8491
Spine1  -4.09438 -8.24394 34.689
HEad  -12.8359 23.7151 -15.8001
LeftShoulder1  0.580225 -2.25055 -1.85671
LeftArm  44.4603 32.9539 -33.2108
LeftForeArm  17.2095 -16.2049 -10.2825
LeftHand  -0.727484 13.0248 -9.33386
RightShoulder  -0.223699 -4.66159 11.6914
RightArm  -40.3897 -34.7133 47.2319
RightForeArm  25.1679 74.4518 128.487
RightHand  19.6281 -46.0372 -49.3325
LeftUpLeg  -11.4743 -0.749731 5.52207
LeftLeg  52.7315 8.87541 12.7577
LeftFoot  -17.1403 -0.595171 -13.6718
LeftToes  7.09373e-011 9.9627e-011 8.96859e-012
